<svg xmlns="http://www.w3.org/2000/svg" viewBox="0 0 300 300" class="dots">
  <g transform="translate(0 1)">
    <g transform="translate(143.684)">
      <circle cx="87.72" cy="196.259" r="6.316"/>
      <circle cx="6.316" cy="78.83" r="6.316"/>
      <circle cx="6.316" cy="78.83" r="6.316"/>
      <circle cx="115.322" cy="57.31" r="6.316"/>
      <circle cx="104.562" cy="83.041" r="6.316"/>
      <circle cx="129.825" cy="77.895" r="6.316"/>
      <circle cx="115.79" cy="103.626" r="6.316"/>
      <circle cx="140.118" cy="99.883" r="6.316"/>
      <circle cx="73.217" cy="127.018" r="6.316"/>
      <circle cx="97.545" cy="124.679" r="6.316"/>
      <circle cx="122.339" cy="125.615" r="6.316"/>
      <circle cx="146.667" cy="124.211" r="6.316"/>
      <circle cx="27.836" cy="82.106" r="6.316"/>
      <circle cx="47.485" cy="91.93" r="6.316"/>
      <circle cx="29.24" cy="108.773" r="6.316"/>
      <circle cx="31.112" cy="8.655" r="6.316"/>
      <circle cx="29.24" cy="32.983" r="6.316"/>
      <circle cx="30.644" cy="57.778" r="6.316"/>
      <circle cx="149.007" cy="149.007" r="6.316"/>
      <circle cx="76.492" cy="149.007" r="6.316"/>
      <circle cx="100.351" cy="149.007" r="6.316"/>
      <circle cx="124.679" cy="149.007" r="6.316"/>
      <circle cx="6.316" cy="267.37" r="6.316"/>
      <circle cx="6.316" cy="291.697" r="6.316"/>
      <circle cx="6.316" cy="243.51" r="6.316"/>
      <circle cx="6.316" cy="219.183" r="6.316"/>
      <circle cx="6.316" cy="195.323" r="6.316"/>
      <circle cx="6.316" cy="149.007" r="6.316"/>
      <circle cx="25.497" cy="159.767" r="6.316"/>
      <circle cx="46.082" cy="171.931" r="6.316"/>
      <circle cx="62.925" cy="190.176" r="6.316"/>
      <circle cx="104.562" cy="214.972" r="6.316"/>
      <circle cx="129.825" cy="220.119" r="6.316"/>
      <circle cx="27.836" cy="215.908" r="6.316"/>
      <circle cx="73.217" cy="170.527" r="6.316"/>
      <circle cx="97.545" cy="173.334" r="6.316"/>
      <circle cx="122.339" cy="171.931" r="6.316"/>
      <circle cx="146.667" cy="173.334" r="6.316"/>
      <circle cx="115.79" cy="194.387" r="6.316"/>
      <circle cx="140.118" cy="197.662" r="6.316"/>
      <circle cx="29.24" cy="188.773" r="6.316"/>
      <circle cx="47.485" cy="206.083" r="6.316"/>
      <circle cx="73.217" cy="215.44" r="6.316"/>
      <circle cx="87.72" cy="196.259" r="6.316"/>
      <circle cx="53.568" cy="230.879" r="6.316"/>
      <circle cx="72.281" cy="247.253" r="6.316"/>
      <circle cx="30.644" cy="240.235" r="6.316"/>
      <circle cx="29.24" cy="265.03" r="6.316"/>
      <circle cx="51.696" cy="258.481" r="6.316"/>
      <circle cx="54.972" cy="282.809" r="6.316"/>
      <circle cx="77.427" cy="272.516" r="6.316"/>
      <circle cx="98.013" cy="258.013" r="6.316"/>
      <circle cx="90.059" cy="232.749" r="6.316"/>
      <circle cx="115.322" cy="240.703" r="6.316"/>
      <circle cx="31.112" cy="289.358" r="6.316"/>
      <circle cx="6.316" cy="170.995" r="6.316"/>
      <circle cx="25.497" cy="137.778" r="6.316"/>
      <circle cx="52.632" cy="149.007" r="6.316"/>
      <circle cx="6.316" cy="6.316" r="6.316"/>
      <circle cx="6.316" cy="30.644" r="6.316"/>
      <circle cx="6.316" cy="127.018" r="6.316"/>
      <circle cx="6.316" cy="102.69" r="6.316"/>
      <circle cx="6.316" cy="54.504" r="6.316"/>
      <circle cx="46.082" cy="125.615" r="6.316"/>
      <circle cx="77.427" cy="25.497" r="6.316"/>
      <circle cx="98.013" cy="39.532" r="6.316"/>
      <circle cx="53.568" cy="67.134" r="6.316"/>
      <circle cx="72.749" cy="82.106" r="6.316"/>
      <circle cx="62.925" cy="107.369" r="6.316"/>
      <circle cx="90.059" cy="65.264" r="6.316"/>
      <circle cx="87.72" cy="101.755" r="6.316"/>
      <circle cx="71.813" cy="50.293" r="6.316"/>
      <circle cx="51.696" cy="39.532" r="6.316"/>
      <circle cx="54.972" cy="15.205" r="6.316"/>
    </g>
    <g transform="rotate(180 78.158 149.007)">
      <circle cx="87.72" cy="196.259" r="6.316"/>
      <circle cx="6.316" cy="78.83" r="6.316"/>
      <circle cx="6.316" cy="78.83" r="6.316"/>
      <circle cx="115.322" cy="57.31" r="6.316"/>
      <circle cx="104.562" cy="83.041" r="6.316"/>
      <circle cx="129.825" cy="77.895" r="6.316"/>
      <circle cx="115.79" cy="103.626" r="6.316"/>
      <circle cx="140.118" cy="99.883" r="6.316"/>
      <circle cx="73.217" cy="127.018" r="6.316"/>
      <circle cx="97.545" cy="124.679" r="6.316"/>
      <circle cx="122.339" cy="125.615" r="6.316"/>
      <circle cx="146.667" cy="124.211" r="6.316"/>
      <circle cx="27.836" cy="82.106" r="6.316"/>
      <circle cx="47.485" cy="91.93" r="6.316"/>
      <circle cx="29.24" cy="108.773" r="6.316"/>
      <circle cx="31.112" cy="8.655" r="6.316"/>
      <circle cx="29.24" cy="32.983" r="6.316"/>
      <circle cx="30.644" cy="57.778" r="6.316"/>
      <circle cx="149.007" cy="149.007" r="6.316"/>
      <circle cx="76.492" cy="149.007" r="6.316"/>
      <circle cx="100.351" cy="149.007" r="6.316"/>
      <circle cx="124.679" cy="149.007" r="6.316"/>
      <circle cx="6.316" cy="219.183" r="6.316"/>
      <circle cx="6.316" cy="149.007" r="6.316"/>
      <circle cx="25.497" cy="159.767" r="6.316"/>
      <circle cx="46.082" cy="171.931" r="6.316"/>
      <circle cx="62.925" cy="190.176" r="6.316"/>
      <circle cx="104.562" cy="214.972" r="6.316"/>
      <circle cx="129.825" cy="220.119" r="6.316"/>
      <circle cx="27.836" cy="215.908" r="6.316"/>
      <circle cx="73.217" cy="170.527" r="6.316"/>
      <circle cx="97.545" cy="173.334" r="6.316"/>
      <circle cx="122.339" cy="171.931" r="6.316"/>
      <circle cx="146.667" cy="173.334" r="6.316"/>
      <circle cx="115.79" cy="194.387" r="6.316"/>
      <circle cx="140.118" cy="197.662" r="6.316"/>
      <circle cx="29.24" cy="188.773" r="6.316"/>
      <circle cx="47.485" cy="206.083" r="6.316"/>
      <circle cx="73.217" cy="215.44" r="6.316"/>
      <circle cx="87.72" cy="196.259" r="6.316"/>
      <circle cx="53.568" cy="230.879" r="6.316"/>
      <circle cx="72.281" cy="247.253" r="6.316"/>
      <circle cx="30.644" cy="240.235" r="6.316"/>
      <circle cx="29.24" cy="265.03" r="6.316"/>
      <circle cx="51.696" cy="258.481" r="6.316"/>
      <circle cx="54.972" cy="282.809" r="6.316"/>
      <circle cx="77.427" cy="272.516" r="6.316"/>
      <circle cx="98.013" cy="258.013" r="6.316"/>
      <circle cx="90.059" cy="232.749" r="6.316"/>
      <circle cx="115.322" cy="240.703" r="6.316"/>
      <circle cx="31.112" cy="289.358" r="6.316"/>
      <circle cx="6.316" cy="170.995" r="6.316"/>
      <circle cx="25.497" cy="137.778" r="6.316"/>
      <circle cx="52.632" cy="149.007" r="6.316"/>
      <circle cx="6.316" cy="6.316" r="6.316"/>
      <circle cx="6.316" cy="30.644" r="6.316"/>
      <circle cx="6.316" cy="127.018" r="6.316"/>
      <circle cx="6.316" cy="102.69" r="6.316"/>
      <circle cx="6.316" cy="54.504" r="6.316"/>
      <circle cx="46.082" cy="125.615" r="6.316"/>
      <circle cx="77.427" cy="25.497" r="6.316"/>
      <circle cx="98.013" cy="39.532" r="6.316"/>
      <circle cx="53.568" cy="67.134" r="6.316"/>
      <circle cx="72.749" cy="82.106" r="6.316"/>
      <circle cx="62.925" cy="107.369" r="6.316"/>
      <circle cx="90.059" cy="65.264" r="6.316"/>
      <circle cx="87.72" cy="101.755" r="6.316"/>
      <circle cx="71.813" cy="50.293" r="6.316"/>
      <circle cx="51.696" cy="39.532" r="6.316"/>
      <circle cx="6.316" cy="195.323" r="6.316"/>
      <circle cx="54.972" cy="15.205" r="6.316"/>
      <circle cx="6.316" cy="243.51" r="6.316"/>
      <circle cx="6.316" cy="267.37" r="6.316"/>
      <circle cx="6.316" cy="291.697" r="6.316"/>
    </g>
  </g>
</svg>
