<svg xmlns="http://www.w3.org/2000/svg" width="512" height="512" viewBox="0 0 512 512">
  <g fill="none">
    <rect width="512" height="512" fill="#FFD034"/>
    <path fill="#000" d="M270.53125,385.8125 C313.34375,385.8125 340.84375,351.59375 340.84375,298.3125 L340.84375,298 C340.84375,244.25 313.65625,210.34375 270.53125,210.34375 C247.25,210.34375 227.40625,221.90625 218.34375,240.1875 L215.84375,240.1875 L215.84375,146.75 L181.9375,146.75 L181.9375,383 L215.84375,383 L215.84375,356.28125 L218.34375,356.28125 C228.1875,374.875 246.78125,385.8125 270.53125,385.8125 Z M261,356.90625 C232.71875,356.90625 215.21875,334.5625 215.21875,298.3125 L215.21875,298 C215.21875,261.75 232.71875,239.40625 261,239.40625 C289.28125,239.40625 306.3125,261.59375 306.3125,298 L306.3125,298.3125 C306.3125,334.71875 289.28125,356.90625 261,356.90625 Z"/>
  </g>
</svg>
